HIERARCHY
ROOT Junyuan_V1:Solving:Hips
{
	OFFSET 0.000000 0.000000 0.000000
	CHANNELS 6 Xposition Yposition Zposition Xrotation Yrotation Zrotation
	JOINT Junyuan_V1:Solving:Spine
	{
		OFFSET 0.000000 -11.180205 2.228564
		CHANNELS 6 Xposition Yposition Zposition Xrotation Yrotation Zrotation
		JOINT Junyuan_V1:Solving:Spine1
		{
			OFFSET 0.000000 -8.682996 1.531049
			CHANNELS 6 Xposition Yposition Zposition Xrotation Yrotation Zrotation
			JOINT Junyuan_V1:Solving:Spine2
			{
				OFFSET 0.000000 -8.783394 0.768450
				CHANNELS 6 Xposition Yposition Zposition Xrotation Yrotation Zrotation
				JOINT Junyuan_V1:Solving:Spine3
				{
					OFFSET 0.000000 -8.816944 0.000000
					CHANNELS 6 Xposition Yposition Zposition Xrotation Yrotation Zrotation
					JOINT Junyuan_V1:Solving:Neck
					{
						OFFSET 0.000000 -11.336071 -1.133605
						CHANNELS 6 Xposition Yposition Zposition Xrotation Yrotation Zrotation
						JOINT Junyuan_V1:Solving:Neck1
						{
							OFFSET 0.000000 -7.643246 -0.668695
							CHANNELS 6 Xposition Yposition Zposition Xrotation Yrotation Zrotation
							JOINT Junyuan_V1:Solving:Head
							{
								OFFSET 0.000000 -7.555870 -1.332303
								CHANNELS 6 Xposition Yposition Zposition Xrotation Yrotation Zrotation
								JOINT Junyuan_V1:Solving:HeadEnd
								{
									OFFSET 0.000000 -9.728081 0.000002
									CHANNELS 6 Xposition Yposition Zposition Xrotation Yrotation Zrotation
									End Site
									{
										OFFSET 0.000000 -9.728081 0.000002
									}
								}
							}
						}
					}
					JOINT Junyuan_V1:Solving:RightShoulder
					{
						OFFSET 0.000000 -8.097195 -5.270916
						CHANNELS 6 Xposition Yposition Zposition Xrotation Yrotation Zrotation
						JOINT Junyuan_V1:Solving:RightArm
						{
							OFFSET -20.762394 -0.000008 0.000000
							CHANNELS 6 Xposition Yposition Zposition Xrotation Yrotation Zrotation
							JOINT Junyuan_V1:Solving:RightForeArm
							{
								OFFSET -29.048946 -0.000008 0.000000
								CHANNELS 6 Xposition Yposition Zposition Xrotation Yrotation Zrotation
								JOINT Junyuan_V1:Solving:RightHand
								{
									OFFSET -22.031235 -0.000008 0.000000
									CHANNELS 6 Xposition Yposition Zposition Xrotation Yrotation Zrotation
									JOINT Junyuan_V1:Solving:RightHandThumb1
									{
										OFFSET -3.579254 2.890213 -2.661497
										CHANNELS 6 Xposition Yposition Zposition Xrotation Yrotation Zrotation
										End Site
										{
											OFFSET -5.229485 0.000000 -5.277840
										}
									}
									JOINT Junyuan_V1:Solving:RightHandMiddle1
									{
										OFFSET -9.544678 -0.000004 0.061184
										CHANNELS 6 Xposition Yposition Zposition Xrotation Yrotation Zrotation
										End Site
										{
											OFFSET -7.429878 -0.000004 0.000000
										}
									}
								}
							}
						}
					}
					JOINT Junyuan_V1:Solving:LeftShoulder
					{
						OFFSET 0.000000 -8.097195 -5.270916
						CHANNELS 6 Xposition Yposition Zposition Xrotation Yrotation Zrotation
						JOINT Junyuan_V1:Solving:LeftArm
						{
							OFFSET 20.762394 -0.000008 0.000000
							CHANNELS 6 Xposition Yposition Zposition Xrotation Yrotation Zrotation
							JOINT Junyuan_V1:Solving:LeftForeArm
							{
								OFFSET 29.048946 -0.000008 0.000000
								CHANNELS 6 Xposition Yposition Zposition Xrotation Yrotation Zrotation
								JOINT Junyuan_V1:Solving:LeftHand
								{
									OFFSET 22.031235 -0.000008 0.000000
									CHANNELS 6 Xposition Yposition Zposition Xrotation Yrotation Zrotation
									JOINT Junyuan_V1:Solving:LeftHandThumb1
									{
										OFFSET 3.579254 2.890213 -2.661497
										CHANNELS 6 Xposition Yposition Zposition Xrotation Yrotation Zrotation
										End Site
										{
											OFFSET 5.229485 0.000000 -5.277840
										}
									}
									JOINT Junyuan_V1:Solving:LeftHandMiddle1
									{
										OFFSET 9.544678 -0.000004 0.061184
										CHANNELS 6 Xposition Yposition Zposition Xrotation Yrotation Zrotation
										End Site
										{
											OFFSET 7.429878 -0.000004 0.000000
										}
									}
								}
							}
						}
					}
				}
			}
		}
	}
	JOINT Junyuan_V1:Solving:RightUpLeg
	{
		OFFSET -10.825166 0.000000 0.000000
		CHANNELS 6 Xposition Yposition Zposition Xrotation Yrotation Zrotation
		JOINT Junyuan_V1:Solving:RightLeg
		{
			OFFSET 0.000000 43.678444 -0.000006
			CHANNELS 6 Xposition Yposition Zposition Xrotation Yrotation Zrotation
			JOINT Junyuan_V1:Solving:RightFoot
			{
				OFFSET 0.000000 36.488441 -0.000006
				CHANNELS 6 Xposition Yposition Zposition Xrotation Yrotation Zrotation
				JOINT Junyuan_V1:Solving:RightForeFoot
				{
					OFFSET 0.000000 3.967834 -0.000000
					CHANNELS 6 Xposition Yposition Zposition Xrotation Yrotation Zrotation
					JOINT Junyuan_V1:Solving:RightToeBase
					{
						OFFSET 0.000000 0.000000 -15.539299
						CHANNELS 6 Xposition Yposition Zposition Xrotation Yrotation Zrotation
						JOINT Junyuan_V1:Solving:RightToeBaseEnd
						{
							OFFSET 0.000000 0.000000 -3.486985
							CHANNELS 6 Xposition Yposition Zposition Xrotation Yrotation Zrotation
							End Site
							{
								OFFSET 0.000000 -3.486992 0.000000
							}
						}
					}
				}
			}
		}
	}
	JOINT Junyuan_V1:Solving:LeftUpLeg
	{
		OFFSET 10.825166 0.000000 0.000000
		CHANNELS 6 Xposition Yposition Zposition Xrotation Yrotation Zrotation
		JOINT Junyuan_V1:Solving:LeftLeg
		{
			OFFSET 0.000000 43.678444 -0.000006
			CHANNELS 6 Xposition Yposition Zposition Xrotation Yrotation Zrotation
			JOINT Junyuan_V1:Solving:LeftFoot
			{
				OFFSET 0.000000 36.488441 -0.000006
				CHANNELS 6 Xposition Yposition Zposition Xrotation Yrotation Zrotation
				JOINT Junyuan_V1:Solving:LeftForeFoot
				{
					OFFSET 0.000000 3.967834 -0.000000
					CHANNELS 6 Xposition Yposition Zposition Xrotation Yrotation Zrotation
					JOINT Junyuan_V1:Solving:LeftToeBase
					{
						OFFSET 0.000000 0.000000 -15.539299
						CHANNELS 6 Xposition Yposition Zposition Xrotation Yrotation Zrotation
						JOINT Junyuan_V1:Solving:LeftToeBaseEnd
						{
							OFFSET 0.000000 0.000000 -3.974441
							CHANNELS 6 Xposition Yposition Zposition Xrotation Yrotation Zrotation
							End Site
							{
								OFFSET 0.000000 -3.974442 0.000000
							}
						}
					}
				}
			}
		}
	}
}
MOTION
Frames: 4
Frame Time: 0.041667
-63.837997 -25.279823 -64.458527 22.045812 -176.102877 1.799822 -0.000006 -11.180210 2.228567 15.582373 0.218477 -0.905002 0.000002 -8.682992 1.531060 17.892891 0.122548 0.003287 -0.000001 -8.783393 0.768443 11.157700 -3.389266 0.124132 0.000005 -8.816936 0.000003 -8.177186 0.129718 -4.551799 -0.000003 -11.336071 -1.133615 -36.052901 -18.308723 21.186507 -0.000001 -7.643258 -0.668692 2.157483 9.495586 -18.079251 -0.000008 -7.555879 -1.332295 -0.348665 -0.967258 3.045997 -0.000006 -9.728081 0.000007 0.000003 -0.000000 -0.000000 -0.000010 -8.097202 -5.270923 0.000015 12.086214 39.373097 -20.762403 -0.000015 -0.000009 -96.088392 3.060774 -93.112772 -29.048952 -0.000004 -0.000017 -46.938078 -12.891740 -13.427314 -22.031239 -0.000035 -0.000001 3.946668 -11.112684 19.695013 -3.579266 2.890206 -2.661488 0.000004 -0.000007 0.000005 -9.544698 0.000004 0.061183 0.000001 0.000004 -0.000006 -0.000003 -8.097206 -5.270923 0.000000 -13.564400 -23.706422 20.762384 -0.000011 -0.000002 -92.496252 0.523153 84.812385 29.048956 -0.000004 -0.000009 -58.672711 7.160226 11.573242 22.031235 -0.000019 -0.000021 1.008943 5.210805 -10.974243 3.579257 2.890213 -2.661490 -0.000004 0.000002 -0.000007 9.544677 0.000009 0.061190 -0.000001 0.000000 -0.000001 -10.825177 -0.000007 0.000006 -130.089832 19.104481 22.986546 -0.000014 43.678429 -0.000001 79.580289 0.000002 0.000002 -0.000007 36.488445 -0.000005 -15.170385 17.835907 1.545681 0.000001 3.967827 -0.000003 0.000001 -0.000005 0.000000 -0.000008 0.000002 -15.539286 13.370958 0.000002 -0.000002 0.000004 -0.000007 -3.486991 0.000001 -0.000002 0.000000 10.825162 -0.000005 -0.000002 -131.068257 -7.652979 -27.819880 -0.000006 43.678444 -0.000015 77.577828 0.000002 0.000002 0.000004 36.488434 0.000019 -11.961385 5.953693 9.246374 0.000017 3.967827 -0.000010 0.000000 0.000000 -0.000000 0.000006 -0.000006 -15.539310 -2.104760 -0.000001 0.000002 -0.000006 -0.000015 -3.974431 0.000000 0.000001 0.000002 
-63.795017 -25.407675 -64.842125 22.745877 -176.171875 1.731044 -0.000016 -11.180192 2.228564 15.344964 0.240166 -0.840074 0.000005 -8.682998 1.531039 18.832181 0.122716 0.086243 0.000005 -8.783399 0.768439 12.223686 -3.539445 0.083812 -0.000000 -8.816948 0.000005 -8.635301 0.097776 -4.459431 0.000004 -11.336073 -1.133608 -36.000667 -17.744702 20.419429 0.000014 -7.643236 -0.668706 1.247723 9.281907 -16.753419 0.000014 -7.555867 -1.332306 -0.301773 -0.893453 2.887656 0.000000 -9.728081 -0.000007 0.000001 0.000001 -0.000000 -0.000006 -8.097198 -5.270924 0.000017 12.293764 39.294184 -20.762398 -0.000008 0.000006 -96.799715 2.519226 -92.471766 -29.048952 -0.000014 -0.000002 -47.629576 -13.005145 -13.858356 -22.031227 -0.000014 -0.000013 3.898033 -11.084598 19.515005 -3.579249 2.890223 -2.661508 -0.000005 0.000009 -0.000002 -9.544689 0.000014 0.061166 -0.000001 0.000003 -0.000005 -0.000010 -8.097198 -5.270926 0.000002 -13.541274 -23.914586 20.762383 -0.000008 -0.000003 -92.940945 0.937862 84.423624 29.048954 -0.000027 0.000000 -59.212938 7.306925 12.049691 22.031231 -0.000019 -0.000020 1.047755 5.330879 -11.136383 3.579269 2.890223 -2.661490 0.000001 -0.000003 -0.000001 9.544701 0.000011 0.061184 0.000003 -0.000005 -0.000001 -10.825171 0.000007 0.000004 -128.849210 19.107821 22.748240 -0.000005 43.678444 0.000015 78.944918 0.000008 0.000004 -0.000002 36.488434 -0.000003 -14.998433 17.801799 1.524508 0.000001 3.967827 0.000002 -0.000000 0.000003 -0.000000 0.000014 0.000011 -15.539300 13.378568 -0.000000 0.000003 0.000003 -0.000007 -3.486972 0.000003 0.000000 -0.000000 10.825165 0.000000 0.000013 -129.790875 -7.889761 -27.770465 0.000019 43.678436 0.000012 76.849334 -0.000000 0.000004 0.000005 36.488415 0.000010 -11.821604 5.895143 9.386632 0.000003 3.967827 0.000001 0.000000 0.000002 0.000001 -0.000004 -0.000004 -15.539311 -2.102218 0.000004 0.000002 -0.000027 0.000000 -3.974427 0.000000 0.000001 -0.000002 
-63.755733 -25.461315 -65.141182 23.040499 -176.276350 1.632179 0.000001 -11.180199 2.228566 15.247684 0.257211 -0.820787 -0.000009 -8.682996 1.531040 19.117418 0.119853 0.115434 -0.000006 -8.783388 0.768473 12.723665 -3.603263 0.079089 0.000007 -8.816939 0.000012 -8.827533 0.086383 -4.483805 -0.000016 -11.336072 -1.133599 -35.969593 -17.681645 20.385628 0.000001 -7.643238 -0.668705 1.088762 9.322846 -16.479952 0.000010 -7.555889 -1.332299 -0.307305 -0.880443 2.887982 -0.000012 -9.728073 -0.000001 0.000005 0.000000 -0.000000 -0.000019 -8.097198 -5.270916 0.000014 12.607362 39.281063 -20.762386 -0.000018 -0.000004 -97.302697 2.943591 -92.387400 -29.048958 -0.000004 -0.000000 -47.547819 -13.120468 -13.935953 -22.031225 -0.000029 0.000009 3.725673 -10.946195 18.928192 -3.579267 2.890204 -2.661505 0.000005 -0.000009 0.000003 -9.544680 -0.000003 0.061199 0.000001 0.000002 -0.000003 -0.000020 -8.097198 -5.270916 -0.000002 -13.640287 -24.028909 20.762390 -0.000002 -0.000011 -93.211749 0.504535 84.367473 29.048946 0.000015 -0.000017 -58.872966 7.448373 12.115548 22.031242 0.000002 -0.000009 0.993423 5.121483 -10.992918 3.579255 2.890222 -2.661488 0.000009 0.000002 0.000001 9.544688 0.000001 0.061204 0.000004 -0.000000 0.000004 -10.825165 0.000004 0.000005 -128.165699 19.029076 22.563279 -0.000003 43.678436 0.000007 78.436643 0.000001 0.000004 -0.000010 36.488426 -0.000004 -14.832589 17.806932 1.510469 0.000007 3.967827 -0.000005 0.000001 0.000003 -0.000000 0.000008 -0.000006 -15.539300 13.351959 -0.000005 0.000001 0.000004 -0.000009 -3.486981 -0.000001 -0.000007 0.000004 10.825171 0.000009 0.000007 -129.001769 -8.069983 -27.628740 -0.000013 43.678436 0.000023 76.201668 0.000006 0.000004 -0.000000 36.488396 -0.000004 -11.654596 5.772680 9.533043 0.000001 3.967834 0.000007 0.000001 0.000003 -0.000001 -0.000015 -0.000010 -15.539302 -2.097171 0.000010 -0.000002 0.000011 -0.000015 -3.974438 0.000000 0.000002 0.000001 
-63.718594 -25.451574 -65.424355 23.002165 -176.404675 1.529830 0.000001 -11.180194 2.228570 15.369630 0.268863 -0.824509 -0.000007 -8.683009 1.531028 18.866941 0.111166 0.110613 0.000005 -8.783380 0.768452 12.695922 -3.626626 0.055568 0.000002 -8.816933 -0.000002 -8.762252 0.068058 -4.580911 -0.000000 -11.336057 -1.133626 -36.434500 -18.017085 20.748781 0.000007 -7.643251 -0.668693 1.985548 9.417373 -16.952316 -0.000012 -7.555885 -1.332296 -0.362701 -0.906702 2.979882 0.000004 -9.728081 0.000009 0.000005 0.000001 0.000000 0.000006 -8.097183 -5.270925 0.000010 13.043070 39.319487 -20.762384 -0.000017 -0.000000 -97.615144 3.843646 -92.673994 -29.048950 -0.000007 0.000004 -46.763648 -13.368985 -13.815597 -22.031254 -0.000019 -0.000001 3.560067 -10.773533 18.409008 -3.579275 2.890204 -2.661510 0.000005 -0.000002 0.000003 -9.544677 -0.000008 0.061185 -0.000000 -0.000000 0.000001 0.000007 -8.097179 -5.270924 0.000003 -13.835369 -24.016502 20.762392 -0.000009 0.000003 -93.294326 -0.113167 84.571587 29.048946 -0.000009 -0.000010 -58.585709 7.534586 12.117215 22.031239 -0.000014 0.000002 0.968421 5.262846 -10.441759 3.579252 2.890219 -2.661510 0.000001 0.000003 -0.000002 9.544691 0.000003 0.061182 0.000003 -0.000000 0.000007 -10.825172 0.000003 0.000000 -127.863095 18.894287 22.382378 -0.000010 43.678436 0.000007 77.923381 0.000005 0.000002 0.000008 36.488434 -0.000000 -14.602417 17.863602 1.487971 0.000009 3.967827 0.000003 -0.000001 -0.000004 0.000000 -0.000000 -0.000003 -15.539292 13.325254 0.000002 -0.000001 0.000006 -0.000016 -3.486990 -0.000001 -0.000002 0.000003 10.825165 0.000008 -0.000011 -128.571645 -8.215792 -27.399396 -0.000010 43.678452 -0.000012 75.531517 0.000005 0.000003 -0.000006 36.488422 -0.000004 -11.393815 5.605714 9.636456 -0.000000 3.967827 -0.000009 0.000000 0.000001 -0.000000 -0.000007 -0.000014 -15.539310 -2.074810 -0.000001 0.000002 0.000011 -0.000007 -3.974453 0.000000 -0.000004 0.000000 
